<svg xmlns="http://www.w3.org/2000/svg" xmlns:xlink="http://www.w3.org/1999/xlink" width="115" height="112" viewBox="0 0 115 112"><defs><path id="t8b6a" d="M1155.917 1741.958a1.92 1.92 0 0 1 1.916-1.923 1.92 1.92 0 0 1 1.917 1.923 1.92 1.92 0 0 1-1.917 1.922 1.92 1.92 0 0 1-1.916-1.922zm65.166 0a1.92 1.92 0 0 1-1.916 1.922 1.92 1.92 0 0 1-1.917-1.922 1.92 1.92 0 0 1 1.917-1.923 1.92 1.92 0 0 1 1.916 1.923zm9.536-1.923h-6.055a5.748 5.748 0 0 0-6.393-3.763 5.762 5.762 0 0 0-4.778 5.686 5.762 5.762 0 0 0 4.778 5.684 5.747 5.747 0 0 0 6.393-3.762h6.055a42.365 42.365 0 0 1-1.064 7.691h-12.305a1.92 1.92 0 0 0-1.917 1.923 1.92 1.92 0 0 0 1.917 1.923h11.216a42.416 42.416 0 0 1-11.92 18.09l-1.27-5.096a1.915 1.915 0 1 0-3.213-.95 1.928 1.928 0 0 0-.506 1.88l1.7 6.826a41.92 41.92 0 0 1-48.976.384l1.94-4.581a1.925 1.925 0 0 0-1.026-2.497 1.914 1.914 0 0 0-2.503.995l-1.534 3.644a42.445 42.445 0 0 1-12.624-18.695h11.216a1.92 1.92 0 0 0 1.917-1.923 1.92 1.92 0 0 0-1.917-1.923h-12.305c-.59-2.525-.945-5.1-1.064-7.69h6.055a5.747 5.747 0 0 0 6.393 3.761 5.762 5.762 0 0 0 4.778-5.684c0-2.81-2.017-5.21-4.778-5.686a5.748 5.748 0 0 0-6.393 3.763h-6.055a42.114 42.114 0 0 1 4.58-17.305h4.162l5.189 5.205a1.913 1.913 0 0 0 2.686-.023c.74-.742.75-1.942.024-2.696l-5.75-5.768a1.914 1.914 0 0 0-1.355-.563h-2.731a42.679 42.679 0 0 1 8.373-9.441l6.918 3.461a1.915 1.915 0 0 0 2.572-.862 1.925 1.925 0 0 0-.86-2.58l-5.205-2.611a41.943 41.943 0 0 1 46.244-.505l-3.309 5.808a1.926 1.926 0 0 0 .713 2.622c.289.17.617.26.951.262a1.917 1.917 0 0 0 1.666-.961l3.122-5.48a42.526 42.526 0 0 1 9.443 10.287h-2.73c-.509 0-.996.203-1.356.563l-5.75 5.768a1.927 1.927 0 0 0 .846 3.243 1.912 1.912 0 0 0 1.864-.524l5.189-5.205h4.163a42.114 42.114 0 0 1 4.579 17.305zm3.886 46.146a1.922 1.922 0 1 1-.001 3.845 1.922 1.922 0 0 1 .001-3.845zm-93.922 5.768a1.92 1.92 0 0 1-1.916-1.923 1.92 1.92 0 0 1 1.916-1.922 1.92 1.92 0 0 0 1.917 1.922 1.92 1.92 0 0 1-1.917 1.923zm13.422-99.983a1.922 1.922 0 1 1 .001-3.844 1.922 1.922 0 0 1-.001 3.844zm84.328-3.845a1.92 1.92 0 0 1 1.917 1.923 1.92 1.92 0 0 1-1.917 1.922 1.92 1.92 0 0 1-1.916-1.922 1.92 1.92 0 0 1 1.916-1.923zm0 32.687v-5.769h5.75a1.92 1.92 0 0 0 1.917-1.922 1.92 1.92 0 0 0-1.917-1.923h-7.666a1.92 1.92 0 0 0-1.917 1.923v5.768h-6.189a46.446 46.446 0 0 0-12.02-13.669l2.07-3.636h16.139c.825 0 1.558-.53 1.82-1.315l1.496-4.505c.172.015.341.052.517.052a5.772 5.772 0 0 0 5.675-4.656 5.789 5.789 0 0 0-3.465-6.48 5.756 5.756 0 0 0-7.005 2.163 5.798 5.798 0 0 0 .77 7.313l-1.19 3.583h-15.868a1.915 1.915 0 0 0-1.664.96l-2.455 4.311a45.751 45.751 0 0 0-52.03 1.902l-5.184-2.594v-6.856a5.77 5.77 0 0 0 3.75-6.414 5.756 5.756 0 0 0-5.667-4.793 5.756 5.756 0 0 0-5.668 4.793 5.77 5.77 0 0 0 3.751 6.414v8.045c0 .728.41 1.395 1.06 1.72l4.707 2.362a46.432 46.432 0 0 0-9.161 11.3h-6.189v-5.768a1.92 1.92 0 0 0-1.917-1.923h-7.666a1.92 1.92 0 0 0-1.917 1.923 1.92 1.92 0 0 0 1.917 1.922h5.75v5.769a1.92 1.92 0 0 0 1.916 1.922h6.116a45.914 45.914 0 0 0-4.151 17.305h-1.965v-11.537a1.92 1.92 0 0 0-1.916-1.922h-5.75a1.92 1.92 0 0 0-1.917 1.922 1.92 1.92 0 0 0 1.917 1.923h3.833v11.537a1.92 1.92 0 0 0 1.917 1.922h3.88c.105 2.586.425 5.16.96 7.691h-4.84a1.92 1.92 0 0 0-1.917 1.923v5.768h-3.833a1.92 1.92 0 0 0-1.917 1.923 1.92 1.92 0 0 0 1.917 1.923h5.75a1.92 1.92 0 0 0 1.916-1.923v-5.768h3.918a46.301 46.301 0 0 0 15.082 22.394l-1.102 2.602h-10.231c-.508 0-.996.202-1.355.563l-3.848 3.859a5.635 5.635 0 0 0-2.464-.577c-3.175 0-5.75 2.583-5.75 5.768 0 3.186 2.575 5.769 5.75 5.769 3.176 0 5.75-2.583 5.75-5.769a5.706 5.706 0 0 0-.574-2.47l3.285-3.298h10.706c.768 0 1.463-.46 1.763-1.17l1.235-2.914c16.414 11.163 38.12 10.483 53.809-1.684h14.53l1.085 4.349a5.797 5.797 0 0 0-3.303 6.68 5.774 5.774 0 0 0 5.995 4.407 5.782 5.782 0 0 0 5.355-5.17 5.791 5.791 0 0 0-4.163-6.178l-1.613-6.476a1.918 1.918 0 0 0-1.86-1.458h-11.648a46.242 46.242 0 0 0 11.564-19.227h3.918v5.768a1.92 1.92 0 0 0 1.916 1.923h5.75a1.92 1.92 0 0 0 1.917-1.923 1.92 1.92 0 0 0-1.917-1.923h-3.833v-5.768a1.92 1.92 0 0 0-1.917-1.923h-4.845c.535-2.532.855-5.105.959-7.69h3.886a1.92 1.92 0 0 0 1.917-1.923v-11.537h3.833a1.92 1.92 0 0 0 1.917-1.923 1.92 1.92 0 0 0-1.917-1.922h-5.75a1.92 1.92 0 0 0-1.916 1.922v11.537h-1.965a45.914 45.914 0 0 0-4.151-17.305h6.116a1.92 1.92 0 0 0 1.916-1.922z"/><path id="t8b6c" d="M1145 1742c0-24.3 19.7-44 44-44s44 19.7 44 44-19.7 44-44 44-44-19.7-44-44z"/><path id="t8b6e" d="M1193.834 1737.858h-10.569v-12.73h10.569c3.501 0 6.341 2.85 6.341 6.365s-2.84 6.365-6.341 6.365zm6.341 10.609c0 3.515-2.84 6.364-6.341 6.364h-10.569v-12.73h10.569c3.501 0 6.341 2.85 6.341 6.366zm4.24-16.974c-.007-5.856-4.738-10.601-10.575-10.609v-4.242a2.119 2.119 0 0 0-2.115-2.122c-1.168 0-2.115.95-2.115 2.122v4.242h-4.23v-4.242a2.119 2.119 0 0 0-2.115-2.122c-1.168 0-2.115.95-2.115 2.122v4.242h-6.345c-1.168 0-2.115.95-2.115 2.122s.947 2.122 2.115 2.122h4.23v29.703h-4.23c-1.168 0-2.115.95-2.115 2.122 0 1.171.947 2.122 2.115 2.122h6.345v4.243c0 1.172.947 2.122 2.115 2.122 1.168 0 2.115-.95 2.115-2.122v-4.243h4.23v4.243c0 1.172.947 2.122 2.115 2.122 1.168 0 2.115-.95 2.115-2.122v-4.243c5.823.016 10.556-4.705 10.573-10.546a10.59 10.59 0 0 0-4.294-8.55 10.582 10.582 0 0 0 4.295-8.486z"/><linearGradient id="t8b6b" x1="1131" x2="1246" y1="1740.02" y2="1740.02" gradientUnits="userSpaceOnUse"><stop offset="0" stop-color="#316cbb"/><stop offset="1" stop-color="#3fb5e7"/></linearGradient><linearGradient id="t8b6d" x1="1145" x2="1233" y1="1742" y2="1742" gradientUnits="userSpaceOnUse"><stop offset="0" stop-color="#316cbb"/><stop offset="1" stop-color="#3fb5e7"/></linearGradient></defs><g><g transform="translate(-1131 -1684)"><g><use fill="url(#t8b6b)" xlink:href="#t8b6a"/></g><g><use fill="url(#t8b6d)" xlink:href="#t8b6c"/></g><g><use fill="#fff" xlink:href="#t8b6e"/></g></g></g></svg>