<svg xmlns="http://www.w3.org/2000/svg" xmlns:xlink="http://www.w3.org/1999/xlink" width="123" height="123" viewBox="0 0 123 123"><defs><path id="ilkka" d="M714 1699.21h123v72.103H714z"/><path id="ilkkb" d="M745.81 1771.31c0-16.397 13.293-29.69 29.69-29.69 16.397 0 29.69 13.293 29.69 29.69 0 16.397-13.293 29.69-29.69 29.69-16.397 0-29.69-13.293-29.69-29.69zm21.207-16.966v33.931h12.724a8.482 8.482 0 0 0 8.483-8.482 8.483 8.483 0 0 0-8.483-8.483 8.482 8.482 0 0 0 8.483-8.483 8.483 8.483 0 0 0-8.483-8.483z"/><path id="ilkkd" d="M779.745 1754.34c4.69 0 8.491 3.797 8.491 8.48 0 4.684-3.802 8.48-8.491 8.48H767.02v-16.96zm-12.725 33.921v-16.95h12.725c4.69 0 8.491 3.794 8.491 8.475 0 4.68-3.802 8.475-8.491 8.475z"/><path id="ilkkf" d="M722.483 1686.482h4.241v4.242h-4.24zm12.724 0h4.242v4.242h-4.242zM714 1699.207h123V1678H714z"/><path id="ilkkh" d="M722.48 1686.48h4.24v4.242h-4.24z"/><path id="ilkki" d="M735.21 1686.48h4.242v4.242h-4.242z"/><path id="ilkkj" d="M722.48 1684.36h4.242a2.12 2.12 0 0 1 2.12 2.12v4.242c0 1.17-.95 2.12-2.12 2.12h-4.241c-1.171 0-2.121-.95-2.121-2.12v-4.242c0-1.171.95-2.12 2.12-2.12z"/><path id="ilkkk" d="M735.21 1684.36h4.242a2.12 2.12 0 0 1 2.12 2.12v4.242a2.12 2.12 0 0 1-2.12 2.12h-4.241c-1.171 0-2.121-.95-2.121-2.12v-4.242c0-1.171.95-2.12 2.12-2.12z"/><path id="ilkkl" d="M764.893 1714.052h-8.483a2.12 2.12 0 0 1 0-4.242h8.483a2.121 2.121 0 0 1 0 4.242z"/><path id="ilkkm" d="M824.277 1714.052H773.38a2.12 2.12 0 0 1 0-4.242h50.897a2.121 2.121 0 0 1 0 4.242z"/><path id="ilkkn" d="M764.893 1722.532h-8.483a2.12 2.12 0 0 1 0-4.242h8.483a2.121 2.121 0 0 1 0 4.242z"/><path id="ilkko" d="M824.277 1722.532H773.38a2.12 2.12 0 0 1 0-4.242h50.897a2.121 2.121 0 0 1 0 4.242z"/><path id="ilkkp" d="M764.893 1731.022h-8.483a2.12 2.12 0 0 1 0-4.242h8.483a2.121 2.121 0 0 1 0 4.242z"/><path id="ilkkq" d="M824.277 1731.022H773.38a2.12 2.12 0 0 1 0-4.242h50.897a2.121 2.121 0 0 1 0 4.242z"/><path id="ilkkr" d="M739.453 1726.777h-6.37v-4.241h6.37a2.121 2.121 0 1 1 0 4.241zm2.123-10.603a2.12 2.12 0 0 1-2.123 2.12h-6.37v-4.24h6.37c1.173 0 2.123.949 2.123 2.12zm4.231 0a6.362 6.362 0 0 0-6.361-6.362h-2.121v-2.121a2.121 2.121 0 0 0-4.242 0v2.12h-6.362a2.121 2.121 0 0 0 0 4.242h2.12v12.724h-2.12a2.121 2.121 0 0 0 0 4.242h6.362v2.12a2.12 2.12 0 0 0 4.242 0v-2.12h2.12a6.336 6.336 0 0 0 4.708-10.604 6.318 6.318 0 0 0 1.654-4.24z"/><path id="ilkks" d="M778.07 1769.604h-7.27v-10.224h7.27c2.41 0 4.363 2.288 4.363 5.112 0 2.823-1.954 5.112-4.363 5.112zm4.363 8.526c0 2.825-1.954 5.116-4.363 5.116h-7.27v-10.234h7.27c2.41 0 4.363 2.29 4.363 5.118zm2.907-13.638c-.004-4.703-3.257-8.514-7.27-8.52v-3.408c0-.94-.65-1.704-1.454-1.704-.803 0-1.454.763-1.454 1.704v3.408h-2.907v-3.408c0-.94-.651-1.704-1.454-1.704-.803 0-1.455.763-1.455 1.704v3.408h-4.362c-.803 0-1.454.763-1.454 1.704 0 .94.651 1.704 1.454 1.704h2.908v23.856h-2.908c-.803 0-1.454.763-1.454 1.704s.651 1.704 1.454 1.704h4.362v3.409c0 .94.652 1.704 1.455 1.704s1.454-.763 1.454-1.704v-3.409h2.907v3.409c0 .94.651 1.704 1.454 1.704.803 0 1.454-.763 1.454-1.704v-3.409c4.004.014 7.258-3.778 7.27-8.47.006-2.709-1.09-5.26-2.952-6.866 1.85-1.595 2.946-4.124 2.952-6.816z"/><linearGradient id="ilkkc" x1="745.81" x2="805.19" y1="1771.31" y2="1771.31" gradientUnits="userSpaceOnUse"><stop offset="0" stop-color="#316cbb"/><stop offset="1" stop-color="#3fb5e7"/></linearGradient><linearGradient id="ilkke" x1="767.02" x2="788.22" y1="1771.31" y2="1771.31" gradientUnits="userSpaceOnUse"><stop offset="0" stop-color="#316cbb"/><stop offset="1" stop-color="#3fb5e7"/></linearGradient><linearGradient id="ilkkg" x1="714" x2="837" y1="1688.61" y2="1688.61" gradientUnits="userSpaceOnUse"><stop offset="0" stop-color="#316cbb"/><stop offset="1" stop-color="#3fb5e7"/></linearGradient></defs><g><g transform="translate(-714 -1678)"><g opacity=".7"><use fill="#c2dff6" xlink:href="#ilkka"/></g><g><use fill="url(#ilkkc)" xlink:href="#ilkkb"/></g><g><use fill="url(#ilkke)" xlink:href="#ilkkd"/></g><g><use fill="url(#ilkkg)" xlink:href="#ilkkf"/></g><g><use fill="#ffaf46" xlink:href="#ilkkh"/></g><g><use fill="#ffaf46" xlink:href="#ilkki"/></g><g><use fill="#004fac" xlink:href="#ilkkj"/></g><g><use fill="#004fac" xlink:href="#ilkkk"/></g><g><use fill="#f1f2f2" xlink:href="#ilkkl"/></g><g><use fill="#f1f2f2" xlink:href="#ilkkm"/></g><g><use fill="#f1f2f2" xlink:href="#ilkkn"/></g><g><use fill="#f1f2f2" xlink:href="#ilkko"/></g><g><use fill="#f1f2f2" xlink:href="#ilkkp"/></g><g><use fill="#f1f2f2" xlink:href="#ilkkq"/></g><g><use fill="#fff" xlink:href="#ilkkr"/></g><g><use fill="#fff" xlink:href="#ilkks"/></g></g></g></svg>