<svg xmlns="http://www.w3.org/2000/svg" xmlns:xlink="http://www.w3.org/1999/xlink" width="123" height="104" viewBox="0 0 123 104"><defs><path id="lod8a" d="M307.054 1775.84h-16.043c-2.214 0-4.011-1.784-4.011-3.983v-23.894c0-2.199 1.797-3.983 4.011-3.983h16.044c2.214 0 4.01 1.784 4.01 3.983v23.894c0 2.199-1.796 3.983-4.01 3.983z"/><path id="lod8c" d="M307.054 1736.258h-16.043a4.013 4.013 0 0 1-4.011-4.012v-24.074a4.013 4.013 0 0 1 4.011-4.012h16.044a4.013 4.013 0 0 1 4.01 4.012v24.074a4.013 4.013 0 0 1-4.01 4.012z"/><path id="lod8e" d="M409.996 1700.177c0-6.588-5.397-11.947-12.032-11.947h-82.891c-6.635 0-12.033 5.36-12.033 11.947v40.335h106.956z"/><path id="lod8g" d="M303.04 1740v39.825c0 6.588 5.398 11.947 12.033 11.947h82.89c6.636 0 12.033-5.36 12.033-11.947V1740z"/><path id="lod8i" d="M389.94 1759.915c-2.213 0-4.01-1.784-4.01-3.983v-31.86c0-2.198 1.797-3.982 4.01-3.982 2.215 0 4.012 1.784 4.012 3.983v31.86c0 2.198-1.797 3.982-4.011 3.982z"/><path id="lod8j" d="M385.93 1740v15.93c0 2.198 1.797 3.982 4.01 3.982 2.215 0 4.012-1.784 4.012-3.982V1740z"/><path id="lod8k" d="M335.134 1739.997c0-6.586 5.397-11.944 12.032-11.944s12.033 5.358 12.033 11.944c0 6.587-5.398 11.945-12.033 11.945s-12.032-5.358-12.032-11.945zm28.752 10.97a19.692 19.692 0 0 0 3.335-10.97c0-4.052-1.233-7.821-3.335-10.97l10.181-10.109a3.961 3.961 0 0 0 0-5.631 4.03 4.03 0 0 0-5.672 0l-10.18 10.108a20.034 20.034 0 0 0-11.049-3.31 20.034 20.034 0 0 0-11.048 3.31l-10.181-10.108a4.03 4.03 0 0 0-5.672 0 3.961 3.961 0 0 0 0 5.631l10.18 10.109a19.692 19.692 0 0 0-3.333 10.97c0 4.053 1.232 7.822 3.334 10.97l-10.181 10.11a3.961 3.961 0 0 0 0 5.63 4.03 4.03 0 0 0 5.672 0l10.18-10.108a20.034 20.034 0 0 0 11.05 3.31c4.08 0 7.877-1.223 11.048-3.31l10.18 10.109a4.03 4.03 0 0 0 5.672 0 3.961 3.961 0 0 0 0-5.632z"/><path id="lod8l" d="M359.199 1740c0 6.588-5.398 11.947-12.033 11.947s-12.033-5.359-12.033-11.947h-8.021c0 4.053 1.232 7.821 3.334 10.97l-10.181 10.11a3.961 3.961 0 0 0 0 5.63 4.03 4.03 0 0 0 5.672 0l10.18-10.108a20.034 20.034 0 0 0 11.05 3.31c4.08 0 7.876-1.223 11.048-3.31l10.18 10.109a4.03 4.03 0 0 0 5.672 0 3.962 3.962 0 0 0 0-5.632l-10.18-10.109a19.69 19.69 0 0 0 3.334-10.97z"/><path id="lod8m" d="M343.15 1740.005c0-2.2 1.795-3.985 4.01-3.985s4.01 1.784 4.01 3.985c0 2.2-1.795 3.985-4.01 3.985s-4.01-1.784-4.01-3.985z"/><path id="lod8n" d="M347.16 1743.983c2.216 0 4.012-1.783 4.012-3.983h-8.022c0 2.2 1.796 3.983 4.01 3.983z"/><linearGradient id="lod8b" x1="311.07" x2="287" y1="1759.91" y2="1759.91" gradientUnits="userSpaceOnUse"><stop offset="0" stop-color="#316cbb"/><stop offset="1" stop-color="#3fb5e7"/></linearGradient><linearGradient id="lod8d" x1="311.07" x2="287" y1="1720.21" y2="1720.21" gradientUnits="userSpaceOnUse"><stop offset="0" stop-color="#316cbb"/><stop offset="1" stop-color="#3fb5e7"/></linearGradient><linearGradient id="lod8f" x1="303.04" x2="410" y1="1714.37" y2="1714.37" gradientUnits="userSpaceOnUse"><stop offset="0" stop-color="#316cbb"/><stop offset="1" stop-color="#3fb5e7"/></linearGradient><linearGradient id="lod8h" x1="303.04" x2="410" y1="1765.88" y2="1765.88" gradientUnits="userSpaceOnUse"><stop offset="0" stop-color="#316cbb"/><stop offset="1" stop-color="#3fb5e7"/></linearGradient></defs><g><g transform="translate(-287 -1688)"><g><use fill="url(#lod8b)" xlink:href="#lod8a"/></g><g><g><use fill="url(#lod8d)" xlink:href="#lod8c"/></g><g><use fill="url(#lod8f)" xlink:href="#lod8e"/></g></g><g><use fill="url(#lod8h)" xlink:href="#lod8g"/></g><g><use fill="#fff" xlink:href="#lod8i"/></g><g><use fill="#e6f3ff" xlink:href="#lod8j"/></g><g><use fill="#fff" xlink:href="#lod8k"/></g><g><use fill="#e6f3ff" xlink:href="#lod8l"/></g><g><use fill="#fff" xlink:href="#lod8m"/></g><g><use fill="#e6f3ff" xlink:href="#lod8n"/></g></g></g></svg>