<svg xmlns="http://www.w3.org/2000/svg" width="70" height="16" viewBox="0 0 70 16"><g><g opacity=".5"><path d="M.127.275H11.77l.127.124v1.855l-.127.124H2.409l-.127.124V5.8l.127.123h4.534c3.66 0 5.773 1.76 5.773 4.908 0 3.065-2.45 4.907-5.773 4.907H.127L0 15.6V.4zM2.28 8.137v5.361l.127.124h4.421c2.535 0 3.605-1.072 3.605-2.804 0-1.883-1.098-2.804-3.605-2.804H2.408zm24.444 3.327c0 2.832-1.563 4.536-4.111 4.536-2.62 0-4.112-1.704-4.112-4.536V9.127l-.127-.124h-2l-.126.124v6.474l-.127.124h-2.055l-.127-.124V.4l.127-.124h2.027l.127.124V6.79l.127.124h2l.126-.124V4.536C18.474 1.718 19.966 0 22.585 0c2.62 0 4.14 1.704 4.14 4.536zm-5.956 0c0 1.567.648 2.433 1.845 2.433 1.112 0 1.844-.784 1.844-2.433V4.536c0-1.622-.577-2.433-1.844-2.433-1.268 0-1.845.811-1.845 2.433zm7.49-11.19h17.053c4.548 0 6.787 2.571 6.787 5.774s-2.493 5.773-6.801 5.773H30.54l-.127.124v3.67l-.126.124H28.26l-.127-.124V.4zm2.155 2.228v7.093l.127.123h14.77c2.887 0 4.52-1.374 4.52-3.67 0-2.31-1.548-3.67-4.52-3.67h-14.77zM61.138 0c4.9 0 8.195 3.409 8.195 8 0 4.536-3.295 8-8.195 8s-8.195-3.409-8.195-8c0-4.536 3.31-8 8.195-8zm0 2.103c-3.717 0-5.914 2.502-5.914 5.897 0 3.395 2.197 5.897 5.914 5.897 3.718 0 5.914-2.502 5.914-5.897 0-3.395-2.196-5.897-5.914-5.897z"/></g></g></svg>