<svg xmlns="http://www.w3.org/2000/svg" xmlns:xlink="http://www.w3.org/1999/xlink" width="22" height="31" viewBox="0 0 22 31"><defs><path id="us67a" d="M999.827 572.95l-16.581 12.526a2.553 2.553 0 0 1-1.537.524 2.52 2.52 0 0 1-1.26-.34c-.89-.517-1.449-1.531-1.449-2.634v-25.051c0-1.104.56-2.117 1.45-2.635a2.509 2.509 0 0 1 2.796.184l16.58 12.525c.734.555 1.174 1.473 1.174 2.451s-.44 1.896-1.173 2.45z"/><mask id="us67c" width="2" height="2" x="-1" y="-1"><path fill="#fff" d="M979 555h22v31h-22z"/><use xlink:href="#us67a"/></mask><filter id="us67b" width="82" height="101" x="949" y="525" filterUnits="userSpaceOnUse"><feOffset dy="10" in="SourceGraphic" result="FeOffset1079Out"/><feGaussianBlur in="FeOffset1079Out" result="FeGaussianBlur1080Out" stdDeviation="8 8"/></filter></defs><g><g transform="translate(-979 -555)"><g filter="url(#us67b)"><use fill="none" stroke-width="0" mask="url(&quot;#us67c&quot;)" xlink:href="#us67a"/><use xlink:href="#us67a"/></g><use fill="#3fb2e6" xlink:href="#us67a"/></g></g></svg>