<?xml version="1.0" encoding="UTF-8"?><svg width="15px" height="15px" viewBox="0 0 15 15" version="1.1" xmlns="http://www.w3.org/2000/svg" xmlns:xlink="http://www.w3.org/1999/xlink">        <title>Shape Copy 2</title>    <desc>Created with Sketch.</desc>    <defs></defs>    <g id="Page-1" stroke="none" stroke-width="1" fill="none" fill-rule="evenodd">        <g id="iPad-Объект" transform="translate(-136.000000, -2326.000000)" fill="#C0C0C0">            <g id="Group-8" transform="translate(1.000000, 2020.000000)">                <g id="2-объект">                    <g id="Текст" transform="translate(30.000000, 235.000000)">                        <path d="M117.999079,76.9545732 L117.999079,84.5207559 L114.799188,84.5207559 L114.799189,79.0380628 C114.799189,78.7555856 114.567488,78.5263287 114.281999,78.5263287 L110.404112,78.5263287 C110.118623,78.5263287 109.886922,78.7555856 109.886922,79.0380628 L109.886922,84.5207559 L106.802509,84.5207559 C106.802509,84.5207559 106.802509,76.9545732 106.802509,76.9545732 L105.909488,76.9545732 L112.364945,71.8560247 L118.804132,76.9545732 L117.999079,76.9545732 Z M110.688208,84.4466983 L110.688208,79.3106537 L114.035175,79.3106537 L114.035175,84.4466983 L110.688208,84.4466983 Z M112.665265,71.1113022 C112.477008,70.9628993 112.210138,70.9628993 112.021881,71.1113022 L105.253939,76.4974 C105.128779,76.5946294 104.751195,77.2712135 105.253939,77.6076926 C105.43683,77.7300993 106.13954,77.7269326 106.13954,77.7269326 L106.13954,84.6390091 C106.13954,85.1810941 106.490147,85.3078288 106.775636,85.3078288 L110.404112,85.3078285 L114.281999,85.3078285 L118.198321,85.3078288 C118.48381,85.3078288 118.741986,85.0405705 118.741986,84.7580933 C118.741986,84.7580933 118.758468,77.6734927 118.741986,77.6709479 C119.134855,77.6709479 119.493502,77.6076926 119.493502,77.6076926 C120.136578,77.1604907 119.557332,76.5223781 119.433207,76.4251487 L112.665265,71.1113022 Z" id="Shape-Copy-2"></path>                    </g>                </g>            </g>        </g>    </g></svg>