<svg id="jqestate-logo" viewBox="0 0 27 24"  width="100%" height="100%" xmlns="http://www.w3.org/2000/svg">
<path fill-rule="evenodd" fill="#ff4c4e" stroke="#ff4c4e" d="M25.701 6.768L13.94.524c-.393-.21-1.036-.21-1.43 0L.886 6.667c-.393.208-.394.55-.002.76L3.82 9c.392.21 1.037.215 1.432.01l7.967-4.122 8.806 4.506v9.936c0 .003-17.65.005-17.65.005V15.05c0-.445-.32-.98-.71-1.192l-2.84-1.455c-.39-.21-.71-.02-.708.426v9.724c0 .446.403.81.848.81l24.662.01c.445 0 .81-.364.808-.808l-.018-14.61c-.001-.444-.323-.979-.716-1.187z"></path>
</svg>
