<?xml version="1.0" encoding="UTF-8"?><svg width="14px" height="14px" viewBox="0 0 14 14" version="1.1" xmlns="http://www.w3.org/2000/svg" xmlns:xlink="http://www.w3.org/1999/xlink">        <title>Shape Copy</title>    <desc>Created with Sketch.</desc>    <defs></defs>    <g id="Page-1" stroke="none" stroke-width="1" fill="none" fill-rule="evenodd">        <g id="iPad-Объект" transform="translate(-31.000000, -2327.000000)" fill="#B2B2B2">            <g id="Group-8" transform="translate(1.000000, 2020.000000)">                <g id="2-объект">                    <g id="Текст" transform="translate(30.000000, 235.000000)">                        <path d="M12.1576714,72 L1.27975488,72 C0.573970064,72 0,72.5679157 0,73.2662557 L0,84.0294289 C0,84.7277689 0.573970064,85.2956846 1.27975488,85.2956846 L12.1576714,85.2956846 C12.8631363,85.2956846 13.4374263,84.7277689 13.4374263,84.0294289 L13.4374263,73.2662557 C13.4374263,72.5679157 12.8631363,72 12.1576714,72 L12.1576714,72 Z M12.6989642,80.7269354 L6.36175025,77.8336333 L8.565625,72.70768 L12.6989642,72.70768 L12.6989642,80.7269354 Z M7.71627597,72.7253592 L2.50472533,84.5401356 L0.701310987,84.5401356 L0.767899795,72.7253592 L7.71627597,72.7253592 Z M3.35993263,84.5697941 L6.03344399,78.4887778 L12.6934965,81.4341033 L12.6934965,84.5697941 L3.35993263,84.5697941 Z" id="Shape-Copy"></path>                    </g>                </g>            </g>        </g>    </g></svg>